<svg width="144" height="28" viewBox="0 0 144 28" fill="none" xmlns="http://www.w3.org/2000/svg">
<path d="M0.86908 27V0.920003H7.30912L11.5091 12.52C11.7757 13.2667 12.0291 14.0533 12.2691 14.88C12.5091 15.7067 12.7624 16.52 13.0291 17.32H13.1891C13.4557 16.52 13.6957 15.7067 13.9091 14.88C14.1491 14.0533 14.4024 13.2667 14.6691 12.52L18.7891 0.920003H25.1891V27H19.8291V17.44C19.8291 16.5867 19.8691 15.64 19.9491 14.6C20.0557 13.5333 20.1624 12.4667 20.2691 11.4C20.4024 10.3333 20.5091 9.38667 20.5891 8.56H20.4291L18.3091 14.76L14.5891 24.72H11.3491L7.62912 14.76L5.54908 8.56H5.38908C5.49575 9.38667 5.60242 10.3333 5.70908 11.4C5.81575 12.4667 5.90908 13.5333 5.98908 14.6C6.09572 15.64 6.14912 16.5867 6.14912 17.44V27H0.86908ZM41.4578 13.8L40.8178 16.2H46.3778L45.7778 13.8C45.4311 12.4933 45.0711 11.1067 44.6978 9.64C44.3511 8.17333 44.0045 6.76 43.6578 5.4H43.4978C43.1778 6.78667 42.8445 8.21333 42.4978 9.68C42.1778 11.12 41.8311 12.4933 41.4578 13.8ZM32.0178 27L40.1778 0.920003H47.2578L55.4178 27H49.1778L47.5778 20.8H39.6178L38.0178 27H32.0178ZM62.2675 27V0.920003H68.1475V22.04H78.4675V27H62.2675ZM88.3266 27L80.4466 0.920003H86.6866L89.8066 13.08C90.2066 14.4933 90.5532 15.88 90.8466 17.24C91.1666 18.6 91.5266 20 91.9266 21.44H92.0866C92.4599 20 92.8066 18.6 93.1266 17.24C93.4466 15.88 93.7932 14.4933 94.1666 13.08L97.247 0.920003H103.247L95.4066 27H88.3266ZM110.033 27V0.920003H115.913V27H110.033ZM134.024 27.48C132.318 27.48 130.611 27.16 128.904 26.52C127.224 25.88 125.718 24.9467 124.384 23.72L127.744 19.68C128.678 20.48 129.718 21.1333 130.864 21.64C132.011 22.1467 133.118 22.4 134.184 22.4C135.411 22.4 136.318 22.1733 136.904 21.72C137.518 21.2667 137.824 20.6533 137.824 19.88C137.824 19.0533 137.478 18.4533 136.784 18.08C136.118 17.68 135.211 17.24 134.064 16.76L130.664 15.32C129.784 14.9467 128.944 14.4533 128.144 13.84C127.344 13.2 126.691 12.4133 126.184 11.48C125.678 10.5467 125.424 9.45333 125.424 8.2C125.424 6.76 125.811 5.45333 126.584 4.28C127.384 3.10667 128.478 2.17333 129.864 1.48C131.278 0.786669 132.891 0.440002 134.704 0.440002C136.198 0.440002 137.691 0.733335 139.184 1.32C140.678 1.90667 141.984 2.76 143.104 3.88L140.104 7.6C139.251 6.93333 138.398 6.42667 137.544 6.08C136.691 5.70667 135.744 5.52 134.704 5.52C133.691 5.52 132.878 5.73333 132.264 6.16C131.678 6.56 131.384 7.13333 131.384 7.88C131.384 8.68 131.758 9.28 132.504 9.68C133.278 10.08 134.224 10.5067 135.344 10.96L138.704 12.32C140.278 12.96 141.531 13.84 142.464 14.96C143.398 16.08 143.864 17.56 143.864 19.4C143.864 20.84 143.478 22.1733 142.704 23.4C141.931 24.6267 140.811 25.6133 139.344 26.36C137.878 27.1067 136.104 27.48 134.024 27.48Z" fill="#B81C26"/>
</svg>
