<svg width="174" height="34" viewBox="0 0 174 34" fill="none" xmlns="http://www.w3.org/2000/svg">
<path d="M36.3905 0.869998L36.7505 5.775L23.3855 28.95C23.3855 28.95 23.2355 29.22 22.9355 29.76C22.6355 30.27 22.3355 30.9 22.0355 31.65C21.7655 32.4 21.6305 33.15 21.6305 33.9H21.1805L19.4255 29.985L36.3905 0.869998ZM5.88053 29.715V33H0.885527V32.55C0.915527 32.55 1.05053 32.55 1.29053 32.55C1.50053 32.55 1.60553 32.55 1.60553 32.55C2.41553 32.55 3.13553 32.31 3.76553 31.83C4.39553 31.32 4.77053 30.615 4.89053 29.715H5.88053ZM7.86053 30.435C7.86053 30.465 7.86053 30.495 7.86053 30.525C7.86053 30.555 7.86053 30.6 7.86053 30.66C7.86053 31.14 8.02553 31.59 8.35553 32.01C8.71553 32.4 9.13553 32.595 9.61553 32.595H10.2905V33H7.54553V30.435H7.86053ZM8.62553 0.869998H9.03053L10.6055 5.37L7.59053 33H4.44053L8.62553 0.869998ZM9.03053 0.869998L23.7455 25.035L21.1805 33.9L7.86053 11.535L9.03053 0.869998ZM36.7955 0.869998L41.0705 33H33.8255L31.5755 12.3L36.3905 0.869998H36.7955ZM39.6755 29.715H40.6205C40.7705 30.615 41.1605 31.32 41.7905 31.83C42.4205 32.31 43.1255 32.55 43.9055 32.55C43.9055 32.55 44.0255 32.55 44.2655 32.55C44.5055 32.55 44.6255 32.55 44.6255 32.55V33H39.6755V29.715ZM33.5555 30.435H33.8705V33H31.1255V32.595H31.8005C32.3105 32.595 32.7305 32.4 33.0605 32.01C33.3905 31.59 33.5555 31.14 33.5555 30.66C33.5555 30.6 33.5555 30.555 33.5555 30.525C33.5555 30.495 33.5555 30.465 33.5555 30.435ZM60.1112 0.599999L74.8262 32.73H66.7262L57.3662 9.285L60.1112 0.599999ZM50.4362 29.715C50.1962 30.315 50.1512 30.825 50.3012 31.245C50.4512 31.665 50.7062 31.995 51.0662 32.235C51.4262 32.445 51.7862 32.55 52.1462 32.55H52.5512V33H42.9212V32.55C42.9212 32.55 42.9962 32.55 43.1462 32.55C43.2662 32.55 43.3262 32.55 43.3262 32.55C44.0162 32.55 44.7212 32.34 45.4412 31.92C46.1912 31.47 46.8062 30.735 47.2862 29.715H50.4362ZM60.1112 0.599999L60.2912 6.09L49.1312 32.865H45.8462L57.5012 6.495C57.5912 6.315 57.7412 5.985 57.9512 5.505C58.1912 4.995 58.4312 4.425 58.6712 3.795C58.9412 3.165 59.1812 2.565 59.3912 1.995C59.6012 1.395 59.7062 0.929998 59.7062 0.599999H60.1112ZM64.8362 22.29V24.18H51.6062V22.29H64.8362ZM65.5112 29.715H73.3862C73.8962 30.735 74.5112 31.47 75.2312 31.92C75.9512 32.34 76.6562 32.55 77.3462 32.55C77.3462 32.55 77.4062 32.55 77.5262 32.55C77.6462 32.55 77.7062 32.55 77.7062 32.55V33H63.3962V32.55H63.8012C64.4012 32.55 64.9262 32.31 65.3762 31.83C65.8262 31.32 65.8712 30.615 65.5112 29.715ZM88.542 1.5V33H81.792V1.5H88.542ZM100.422 31.065L101.502 33H88.407V31.065H100.422ZM103.707 23.775L101.637 33H92.817L94.437 31.065C95.937 31.065 97.257 30.78 98.397 30.21C99.537 29.61 100.512 28.77 101.322 27.69C102.132 26.58 102.777 25.275 103.257 23.775H103.707ZM81.927 29.715V33H78.327V32.55C78.327 32.55 78.417 32.55 78.597 32.55C78.807 32.55 78.912 32.55 78.912 32.55C79.692 32.55 80.352 32.28 80.892 31.74C81.462 31.17 81.762 30.495 81.792 29.715H81.927ZM81.927 4.785H81.792C81.762 4.005 81.462 3.345 80.892 2.805C80.352 2.235 79.692 1.95 78.912 1.95C78.912 1.95 78.807 1.95 78.597 1.95C78.417 1.95 78.327 1.95 78.327 1.95V1.5H81.927V4.785ZM88.407 4.785V1.5H92.007V1.95C91.977 1.95 91.872 1.95 91.692 1.95C91.512 1.95 91.422 1.95 91.422 1.95C90.642 1.95 89.967 2.235 89.397 2.805C88.857 3.345 88.572 4.005 88.542 4.785H88.407ZM116.112 33.9L101.217 1.77H109.272L118.902 25.215L116.112 33.9ZM116.112 33.9L115.977 28.41L127.407 1.635H130.647L118.722 28.005C118.662 28.185 118.512 28.53 118.272 29.04C118.062 29.52 117.822 30.075 117.552 30.705C117.282 31.335 117.042 31.95 116.832 32.55C116.652 33.12 116.547 33.57 116.517 33.9H116.112ZM126.057 4.785C126.447 3.885 126.402 3.195 125.922 2.715C125.442 2.205 124.917 1.95 124.347 1.95H123.942V1.5H133.572V1.95C133.572 1.95 133.497 1.95 133.347 1.95C133.227 1.95 133.167 1.95 133.167 1.95C132.507 1.95 131.802 2.175 131.052 2.625C130.332 3.045 129.732 3.765 129.252 4.785H126.057ZM110.532 4.785H102.612C102.132 3.765 101.517 3.045 100.767 2.625C100.047 2.175 99.3422 1.95 98.6522 1.95C98.6522 1.95 98.5922 1.95 98.4722 1.95C98.3522 1.95 98.2922 1.95 98.2922 1.95V1.5H112.602V1.95H112.197C111.627 1.95 111.117 2.205 110.667 2.715C110.247 3.195 110.202 3.885 110.532 4.785ZM144.397 1.5V33H137.647V1.5H144.397ZM137.782 29.715V33H134.182V32.55C134.182 32.55 134.272 32.55 134.452 32.55C134.662 32.55 134.767 32.55 134.767 32.55C135.547 32.55 136.207 32.28 136.747 31.74C137.317 31.17 137.617 30.495 137.647 29.715H137.782ZM137.782 4.785H137.647C137.617 4.005 137.317 3.345 136.747 2.805C136.207 2.235 135.547 1.95 134.767 1.95C134.767 1.95 134.662 1.95 134.452 1.95C134.272 1.95 134.182 1.95 134.182 1.95V1.5H137.782V4.785ZM144.262 29.715H144.397C144.427 30.495 144.712 31.17 145.252 31.74C145.822 32.28 146.497 32.55 147.277 32.55C147.277 32.55 147.367 32.55 147.547 32.55C147.727 32.55 147.832 32.55 147.862 32.55V33H144.262V29.715ZM144.262 4.785V1.5H147.862V1.95C147.832 1.95 147.727 1.95 147.547 1.95C147.367 1.95 147.277 1.95 147.277 1.95C146.497 1.95 145.822 2.235 145.252 2.805C144.712 3.345 144.427 4.005 144.397 4.785H144.262ZM162.159 0.869998C162.759 0.869998 163.494 0.899998 164.364 0.959999C165.264 1.02 166.179 1.11 167.109 1.23C168.069 1.32 168.894 1.425 169.584 1.545C170.304 1.635 170.799 1.74 171.069 1.86L170.529 7.935H170.079C170.079 6.375 169.494 5.13 168.324 4.2C167.184 3.24 165.654 2.76 163.734 2.76C161.994 2.76 160.584 3.18 159.504 4.02C158.454 4.86 157.899 5.88 157.839 7.08C157.809 7.98 158.094 8.76 158.694 9.42C159.294 10.08 160.059 10.695 160.989 11.265L169.584 16.845C170.964 17.625 171.999 18.645 172.689 19.905C173.409 21.165 173.724 22.635 173.634 24.315C173.484 27.255 172.359 29.55 170.259 31.2C168.159 32.82 165.309 33.63 161.709 33.63C160.389 33.63 159.099 33.51 157.839 33.27C156.609 33.06 155.514 32.76 154.554 32.37C153.594 31.95 152.829 31.455 152.259 30.885C152.019 30.225 151.914 29.43 151.944 28.5C151.974 27.57 152.109 26.625 152.349 25.665C152.619 24.705 152.949 23.91 153.339 23.28H153.744C153.624 24.81 153.894 26.235 154.554 27.555C155.244 28.845 156.234 29.88 157.524 30.66C158.844 31.41 160.404 31.77 162.204 31.74C164.184 31.71 165.714 31.215 166.794 30.255C167.874 29.265 168.414 28.08 168.414 26.7C168.414 25.77 168.129 24.93 167.559 24.18C167.019 23.43 166.119 22.71 164.859 22.02L156.984 16.8C155.394 15.9 154.239 14.745 153.519 13.335C152.799 11.925 152.514 10.395 152.664 8.745C152.814 7.185 153.279 5.82 154.059 4.65C154.839 3.45 155.904 2.52 157.254 1.86C158.634 1.2 160.269 0.869998 162.159 0.869998ZM171.114 1.32L171.024 2.265H165.714V1.32H171.114Z" fill="#B81C26"/>
</svg>
